<svg xmlns="http://www.w3.org/2000/svg" fill="none" viewBox="0 0 20.5 24">
  <path fill-rule="evenodd" clip-rule="evenodd" d="M0 21.8372C0 23.1506 0.852709 24 2.16281 24H8.48135C12.2516 24 15.3357 22.7258 17.4299 20.4912H0V21.8372ZM8.48135 0H2.16281C0.852709 0 0 0.849442 0 2.16281V3.50885H17.4332C15.3357 1.27416 12.2516 0 8.48135 0ZM13.9962 15.4206C13.9962 16.4824 14.6888 17.1718 15.7539 17.1718H19.5404C19.9684 16.1067 20.2592 14.9371 20.3931 13.6727H15.7539C14.6888 13.6727 13.9962 14.3621 13.9962 15.4239V15.4206ZM8.74925 8.58916C8.74925 9.65097 9.44187 10.3403 10.5069 10.3403H20.3931C20.2592 9.07596 19.9717 7.90634 19.5404 6.84127H10.5069C9.44187 6.84127 8.74925 7.53063 8.74925 8.59243V8.58916ZM10.5037 15.4206C10.5037 14.3588 9.81105 13.6695 8.74598 13.6695H0V17.1685H8.74598C9.81105 17.1685 10.5037 16.4792 10.5037 15.4174V15.4206ZM5.25674 8.58916C5.25674 7.52736 4.56412 6.83801 3.49905 6.83801H0V10.3371H3.49905C4.56412 10.3371 5.25674 9.6477 5.25674 8.5859V8.58916Z" fill="#F73B3B"/>
</svg>
