<svg width="32" height="32" viewBox="0 0 32 32" fill="none" xmlns="http://www.w3.org/2000/svg">
<path fill-rule="evenodd" clip-rule="evenodd" d="M3.85833 23.0525L15.8792 29.9933C16.0413 30.0874 16.2399 30.0874 16.4019 29.9933L28.4254 23.0525C28.773 22.8513 28.773 22.3495 28.4254 22.1483L16.4019 15.2076C16.2399 15.1135 16.0413 15.1135 15.8792 15.2076L3.85833 22.1483C3.51077 22.3495 3.51077 22.8513 3.85833 23.0525Z" fill="#FF9752"/>
<path fill-rule="evenodd" clip-rule="evenodd" d="M3.36626 9.8584L15.8759 29.719C16.0248 29.9568 16.3358 30.0326 16.5788 29.8941L28.7382 22.8723C28.9943 22.7234 29.078 22.3915 28.9185 22.1406L16.4116 2.27999C16.2626 2.04219 15.9516 1.9664 15.7086 2.10491L3.54657 9.12669C3.29048 9.27564 3.20685 9.60752 3.36626 9.8584Z" fill="url(#paint0_linear_6497_3427)"/>
<path fill-rule="evenodd" clip-rule="evenodd" d="M3.86029 9.85687L15.876 16.795C16.038 16.8891 16.2366 16.8891 16.3986 16.795L28.4195 9.85425C28.7671 9.65303 28.7671 9.15129 28.4195 8.95007L16.3986 2.00668C16.2366 1.91261 16.038 1.91261 15.876 2.00668L3.86029 8.94223C3.51011 9.14606 3.51011 9.65303 3.86029 9.85425V9.85687Z" fill="#57ACD4"/>
<defs>
<linearGradient id="paint0_linear_6497_3427" x1="9.40546" y1="5.98522" x2="23.1094" y2="26.0685" gradientUnits="userSpaceOnUse">
<stop offset="0.12394" stop-color="#57ACD4"/>
<stop offset="0.843614" stop-color="#FF9752"/>
</linearGradient>
</defs>
</svg>
