<?xml version="1.0" encoding="UTF-8" standalone="no"?>
<!DOCTYPE svg PUBLIC "-//W3C//DTD SVG 1.1//EN" "http://www.w3.org/Graphics/SVG/1.1/DTD/svg11.dtd">
<svg xmlns="http://www.w3.org/2000/svg" version="1.1" viewBox="0.00 0.00 256.00 256.00">
<g stroke-width="2.00" fill="none" stroke-linecap="butt">
<path stroke="#80bdff" vector-effect="non-scaling-stroke" d="
  M 81.47 132.91
  C 92.68 135.57 90.81 148.03 80.25 149.28
  C 70.98 150.37 62.91 146.73 61.38 136.76
  Q 61.30 136.24 60.78 136.35
  L 41.52 140.56
  Q 41.10 140.65 41.16 141.08
  C 46.03 177.47 113.04 176.59 111.60 137.88
  C 111.14 125.46 101.49 115.73 89.49 113.06
  Q 80.63 111.08 71.81 109.05
  C 61.94 106.78 63.63 95.54 72.75 93.49
  C 80.84 91.67 89.16 95.28 90.62 104.20
  A 0.51 0.51 0.0 0 0 91.24 104.62
  L 110.01 100.43
  Q 110.72 100.27 110.58 99.56
  C 107.98 86.68 98.10 78.12 85.27 75.86
  C 68.79 72.94 48.32 79.37 44.06 97.67
  C 40.52 112.85 50.07 125.20 64.84 128.91
  Q 68.55 129.84 81.47 132.91"
/>
<path stroke="#80bdff" vector-effect="non-scaling-stroke" d="
  M 214.97 166.18
  A 0.35 0.35 0.0 0 0 214.62 165.83
  L 125.58 165.83
  A 0.35 0.35 0.0 0 0 125.23 166.18
  L 125.23 185.12
  A 0.35 0.35 0.0 0 0 125.58 185.47
  L 214.62 185.47
  A 0.35 0.35 0.0 0 0 214.97 185.12
  L 214.97 166.18"
/>
</g>
<path fill="#007aff" d="
  M 253.00 128.00
  A 125.00 125.00 0.0 0 1 128.00 253.00
  A 125.00 125.00 0.0 0 1 3.00 128.00
  A 125.00 125.00 0.0 0 1 128.00 3.00
  A 125.00 125.00 0.0 0 1 253.00 128.00
  Z
  M 81.47 132.91
  C 92.68 135.57 90.81 148.03 80.25 149.28
  C 70.98 150.37 62.91 146.73 61.38 136.76
  Q 61.30 136.24 60.78 136.35
  L 41.52 140.56
  Q 41.10 140.65 41.16 141.08
  C 46.03 177.47 113.04 176.59 111.60 137.88
  C 111.14 125.46 101.49 115.73 89.49 113.06
  Q 80.63 111.08 71.81 109.05
  C 61.94 106.78 63.63 95.54 72.75 93.49
  C 80.84 91.67 89.16 95.28 90.62 104.20
  A 0.51 0.51 0.0 0 0 91.24 104.62
  L 110.01 100.43
  Q 110.72 100.27 110.58 99.56
  C 107.98 86.68 98.10 78.12 85.27 75.86
  C 68.79 72.94 48.32 79.37 44.06 97.67
  C 40.52 112.85 50.07 125.20 64.84 128.91
  Q 68.55 129.84 81.47 132.91
  Z
  M 214.97 166.18
  A 0.35 0.35 0.0 0 0 214.62 165.83
  L 125.58 165.83
  A 0.35 0.35 0.0 0 0 125.23 166.18
  L 125.23 185.12
  A 0.35 0.35 0.0 0 0 125.58 185.47
  L 214.62 185.47
  A 0.35 0.35 0.0 0 0 214.97 185.12
  L 214.97 166.18
  Z"
/>
<path fill="#ffffff" d="
  M 80.25 149.28
  C 90.81 148.03 92.68 135.57 81.47 132.91
  Q 68.55 129.84 64.84 128.91
  C 50.07 125.20 40.52 112.85 44.06 97.67
  C 48.32 79.37 68.79 72.94 85.27 75.86
  C 98.10 78.12 107.98 86.68 110.58 99.56
  Q 110.72 100.27 110.01 100.43
  L 91.24 104.62
  A 0.51 0.51 0.0 0 1 90.62 104.20
  C 89.16 95.28 80.84 91.67 72.75 93.49
  C 63.63 95.54 61.94 106.78 71.81 109.05
  Q 80.63 111.08 89.49 113.06
  C 101.49 115.73 111.14 125.46 111.60 137.88
  C 113.04 176.59 46.03 177.47 41.16 141.08
  Q 41.10 140.65 41.52 140.56
  L 60.78 136.35
  Q 61.30 136.24 61.38 136.76
  C 62.91 146.73 70.98 150.37 80.25 149.28
  Z"
/>
<rect fill="#ffffff" x="125.23" y="165.83" width="89.74" height="19.64" rx="0.35"/>
</svg>
